<svg id="Livello_1" data-name="Livello 1" xmlns="http://www.w3.org/2000/svg" xmlns:xlink="http://www.w3.org/1999/xlink" width="800" height="474.71" viewBox="0 0 800 474.71">
  <defs>
    <linearGradient id="Sfumatura_senza_nome_59" data-name="Sfumatura senza nome 59" x1="81.08" y1="363.28" x2="73.72" y2="379.13" gradientTransform="matrix(1, 0, 0, -1, 0, 602)" gradientUnits="userSpaceOnUse">
      <stop offset="0" stop-color="#c03717"/>
      <stop offset="0.43" stop-color="#ff6b4c"/>
      <stop offset="0.71" stop-color="#ff6b4c"/>
      <stop offset="1" stop-color="#ff8970"/>
    </linearGradient>
    <linearGradient id="Sfumatura_senza_nome_60" data-name="Sfumatura senza nome 60" x1="82.82" y1="325.94" x2="83.2" y2="375.21" gradientTransform="matrix(1, 0, 0, -1, 0, 602)" gradientUnits="userSpaceOnUse">
      <stop offset="0.5" stop-color="#510b00"/>
      <stop offset="1" stop-color="#ff6b4c"/>
    </linearGradient>
    <linearGradient id="Sfumatura_senza_nome_61" data-name="Sfumatura senza nome 61" x1="99.61" y1="334.8" x2="66.36" y2="382.64" gradientTransform="matrix(1, 0, 0, -1, 0, 602)" gradientUnits="userSpaceOnUse">
      <stop offset="0" stop-color="#510b00"/>
      <stop offset="1" stop-color="#ff6b4c" stop-opacity="0"/>
    </linearGradient>
    <linearGradient id="Sfumatura_senza_nome_62" data-name="Sfumatura senza nome 62" x1="150.95" y1="397.09" x2="144.43" y2="412.42" xlink:href="#Sfumatura_senza_nome_59"/>
    <linearGradient id="Sfumatura_senza_nome_63" data-name="Sfumatura senza nome 63" x1="151.57" y1="363.36" x2="151.78" y2="411.74" xlink:href="#Sfumatura_senza_nome_60"/>
    <linearGradient id="Sfumatura_senza_nome_64" data-name="Sfumatura senza nome 64" x1="160.08" y1="366.91" x2="141.99" y2="437.9" xlink:href="#Sfumatura_senza_nome_61"/>
    <linearGradient id="Sfumatura_senza_nome_65" data-name="Sfumatura senza nome 65" x1="220.83" y1="433.97" x2="214.31" y2="449.3" xlink:href="#Sfumatura_senza_nome_59"/>
    <linearGradient id="Sfumatura_senza_nome_66" data-name="Sfumatura senza nome 66" x1="221.45" y1="400.24" x2="221.66" y2="448.62" xlink:href="#Sfumatura_senza_nome_60"/>
    <linearGradient id="Sfumatura_senza_nome_67" data-name="Sfumatura senza nome 67" x1="229.96" y1="403.79" x2="211.87" y2="474.78" xlink:href="#Sfumatura_senza_nome_61"/>
    <linearGradient id="Sfumatura_senza_nome_68" data-name="Sfumatura senza nome 68" x1="289.97" y1="470.69" x2="283.46" y2="486.02" xlink:href="#Sfumatura_senza_nome_59"/>
    <linearGradient id="Sfumatura_senza_nome_69" data-name="Sfumatura senza nome 69" x1="290.59" y1="436.96" x2="290.8" y2="485.33" xlink:href="#Sfumatura_senza_nome_60"/>
    <linearGradient id="Sfumatura_senza_nome_70" data-name="Sfumatura senza nome 70" x1="299.1" y1="440.51" x2="281.01" y2="511.5" xlink:href="#Sfumatura_senza_nome_61"/>
    <linearGradient id="Sfumatura_senza_nome_71" data-name="Sfumatura senza nome 71" x1="357.87" y1="506.61" x2="351.36" y2="521.94" xlink:href="#Sfumatura_senza_nome_59"/>
    <linearGradient id="Sfumatura_senza_nome_72" data-name="Sfumatura senza nome 72" x1="358.5" y1="472.88" x2="358.7" y2="521.25" xlink:href="#Sfumatura_senza_nome_60"/>
    <linearGradient id="Sfumatura_senza_nome_73" data-name="Sfumatura senza nome 73" x1="367.01" y1="476.43" x2="348.92" y2="547.42" xlink:href="#Sfumatura_senza_nome_61"/>
    <linearGradient id="Sfumatura_senza_nome_74" data-name="Sfumatura senza nome 74" x1="719.64" y1="363.95" x2="727.02" y2="379.75" xlink:href="#Sfumatura_senza_nome_59"/>
    <linearGradient id="Sfumatura_senza_nome_75" data-name="Sfumatura senza nome 75" x1="717.85" y1="326.6" x2="717.51" y2="375.77" xlink:href="#Sfumatura_senza_nome_60"/>
    <linearGradient id="Sfumatura_senza_nome_76" data-name="Sfumatura senza nome 76" x1="696.92" y1="334.75" x2="730.29" y2="382.5" xlink:href="#Sfumatura_senza_nome_61"/>
    <linearGradient id="Sfumatura_senza_nome_77" data-name="Sfumatura senza nome 77" x1="649.64" y1="397.62" x2="656.18" y2="412.89" xlink:href="#Sfumatura_senza_nome_59"/>
    <linearGradient id="Sfumatura_senza_nome_78" data-name="Sfumatura senza nome 78" x1="648.98" y1="363.9" x2="648.79" y2="412.17" xlink:href="#Sfumatura_senza_nome_60"/>
    <linearGradient id="Sfumatura_senza_nome_79" data-name="Sfumatura senza nome 79" x1="640.42" y1="367.37" x2="658.6" y2="438.23" xlink:href="#Sfumatura_senza_nome_61"/>
    <linearGradient id="Sfumatura_senza_nome_80" data-name="Sfumatura senza nome 80" x1="579.63" y1="434.37" x2="586.17" y2="449.65" xlink:href="#Sfumatura_senza_nome_59"/>
    <linearGradient id="Sfumatura_senza_nome_81" data-name="Sfumatura senza nome 81" x1="578.97" y1="400.65" x2="578.78" y2="448.92" xlink:href="#Sfumatura_senza_nome_60"/>
    <linearGradient id="Sfumatura_senza_nome_82" data-name="Sfumatura senza nome 82" x1="570.41" y1="404.12" x2="588.59" y2="474.98" xlink:href="#Sfumatura_senza_nome_61"/>
    <linearGradient id="Sfumatura_senza_nome_83" data-name="Sfumatura senza nome 83" x1="510.35" y1="470.96" x2="516.88" y2="486.23" xlink:href="#Sfumatura_senza_nome_59"/>
    <linearGradient id="Sfumatura_senza_nome_84" data-name="Sfumatura senza nome 84" x1="509.7" y1="437.24" x2="509.51" y2="485.51" xlink:href="#Sfumatura_senza_nome_60"/>
    <linearGradient id="Sfumatura_senza_nome_85" data-name="Sfumatura senza nome 85" x1="501.14" y1="440.71" x2="519.32" y2="511.57" xlink:href="#Sfumatura_senza_nome_61"/>
    <linearGradient id="Sfumatura_senza_nome_86" data-name="Sfumatura senza nome 86" x1="442.32" y1="506.75" x2="448.84" y2="522.03" xlink:href="#Sfumatura_senza_nome_59"/>
    <linearGradient id="Sfumatura_senza_nome_87" data-name="Sfumatura senza nome 87" x1="441.66" y1="473.03" x2="441.47" y2="521.3" xlink:href="#Sfumatura_senza_nome_60"/>
    <linearGradient id="Sfumatura_senza_nome_88" data-name="Sfumatura senza nome 88" x1="433.11" y1="476.5" x2="451.29" y2="547.36" xlink:href="#Sfumatura_senza_nome_61"/>
    <radialGradient id="Sfumatura_senza_nome_89" data-name="Sfumatura senza nome 89" cx="284.44" cy="1607.13" r="25.21" gradientTransform="matrix(0, -1.71, -1.57, 0, 2919.06, 545.14)" gradientUnits="userSpaceOnUse">
      <stop offset="0.01" stop-color="#f79985"/>
      <stop offset="0.32" stop-color="#fb886f"/>
      <stop offset="0.73" stop-color="#c03717"/>
      <stop offset="1" stop-color="#6e0f00"/>
    </radialGradient>
  </defs>
  <g id="Batibat">
    <path id="Path_261_Copy" data-name="Path 261 Copy" d="M55.93,272.37,399.2,83.76v-.22l345,190.24-.11,33.62L400,118.17,55.88,303.7Z" transform="translate(-0.09 -57.06)" style="fill: #ffc188;stroke: #ffd4bf;stroke-linecap: round;stroke-linejoin: round;stroke-width: 1.5px;fill-rule: evenodd"/>
    <g id="Tetto">
      <g id="Group">
        <g id="Tegola_ultima" data-name="Tegola ultima">
          <g id="Path_3" data-name="Path 3">
            <path d="M40.49,240l-.08.2,0,.09c-.14.39-.29.82-.44,1.26-.36,1.06,2.65,11.53,6.64,20.82,3.44,8,7.71,15.05,8.84,15.75a.38.38,0,0,0,.17.06L56,278l1.28-.4c1.17,1.2,61.44-33.35,68.56-37.44l.68-.4s-3.62-7.58-4.8-10.27c-1-2.28-3.26-7.72-4-9.31-.47-1-1.15-3-1.81-4.6a53.22,53.22,0,0,0-3.15-6c-.46-.39-.78-.42-1.5-.14s-1.86.91-4,1.81l-.12,0C101.68,213.53,41.61,236.89,40.49,240Z" transform="translate(-0.09 -57.06)" style="fill: url(#Sfumatura_senza_nome_59)"/>
          </g>
          <g id="Path_216" data-name="Path 216">
            <path d="M40.37,240.24c-.17.4-.35.85-.53,1.32-.75,1.91,2.32,9.2,5.53,17.81,1.41,3.72,7.47,14.75,8.35,16.79a10.72,10.72,0,0,0,1,2c1.19,1.3,65.57-33.2,71.74-38.51l-2,.46L54.81,271.19s-12.2-29.93-14.4-31a.42.42,0,0,1,0,.1Z" transform="translate(-0.09 -57.06)" style="fill-rule: evenodd;fill: url(#Sfumatura_senza_nome_60)"/>
          </g>
          <g id="Path_2" data-name="Path 2">
            <path d="M56,278l1.28-.4c1.17,1.2,61.44-33.35,68.56-37.44-1.51-3.19-3.9-7.63-4.32-8.56-.84-1.87-3.43-8.37-4.27-10.13-.52-1.07-3-7.86-5.61-11.84a.74.74,0,0,0-.4-.18c-.73.29-1.86.91-4,1.81l-.12,0c-5.42,2.22-65.49,25.58-66.61,28.64l-.08.2,0,.09c-.14.39-.29.82-.44,1.26-.36,1.06,2.65,11.53,6.64,20.82,3.44,8,7.71,15.05,8.84,15.75Z" transform="translate(-0.09 -57.06)" style="fill: url(#Sfumatura_senza_nome_61)"/>
          </g>
        </g>
        <g id="Group_Copy_1" data-name="Group Copy 1">
          <g id="Path_219" data-name="Path 219">
            <path d="M109.63,203.24l-.08.2,0,.08c-.14.39-.29.82-.44,1.26-.69,2-1.37,4.47-1.26,5.48,0,.38.19.56.48.45a9.79,9.79,0,0,1,1.86-.75l.24-.06c1.54-.38,1.11-1.06,2,.28h0v0c1,1.54,7.55,16.12,9.24,19.42.31.6.62,1.3.92,2.06,1,2.36,1.89,5.25,2.72,7.2a7.23,7.23,0,0,0,1.1,2h0c1.24,1.28,69.23-37.83,69.23-37.83s-3.62-7.59-4.79-10.28c-1-2.27-3.27-7.72-4-9.3-.46-1-1.15-3-1.81-4.61a51.63,51.63,0,0,0-3.15-6c-.92-.78-1.27-.12-5.47,1.67l-.12,0C170.83,176.82,110.75,200.17,109.63,203.24Z" transform="translate(-0.09 -57.06)" style="fill: url(#Sfumatura_senza_nome_62)"/>
          </g>
          <g id="Path_216-2" data-name="Path 216">
            <path d="M109.52,203.52l-.45,1.3a24.89,24.89,0,0,0-1.25,5.44c0,.67.12,1,.49.9.57-.21,1.25-.69,1.92-1,.85-.45,1.66-.69,2.15.07s5,11.22,8.76,19.7c1.63,3.68,3.14,7,4.13,9a12,12,0,0,0,1.11,2c1.24,1.28,63.14-32.67,69.21-38l-2,.45L126,234s-7.6-19.36-10.93-24.62c-1.32-2.07-3.23-4.86-5.54-5.95l0,.09Z" transform="translate(-0.09 -57.06)" style="fill-rule: evenodd;fill: url(#Sfumatura_senza_nome_63)"/>
          </g>
          <g id="Path_218" data-name="Path 218">
            <path d="M176.36,174.55l-.12,0c-5.41,2.23-65.49,25.58-66.61,28.65l-.08.2,0,.08c-.14.39-.29.82-.44,1.26V205a11.9,11.9,0,0,0,1.09,5l.07.17h.25c.75-.35,1.45-.48,1.89.19h0c.54.86,5,11.24,8.76,19.7a14.11,14.11,0,0,0,1.41,1.81,9,9,0,0,0,2.7,2c5.66,2.68,13.78-1.19,19.11-3.1,13.62-4.88,24.78-11,37-18.93,4-2.61,14.28-8.43,14.28-8.43,0-1.15-4.45-9.4-5-10.66-.76-1.69-3.09-7.57-3.85-9.15-.46-1-2.72-7.12-5.06-10.72C180.92,172,177.66,174.12,176.36,174.55Z" transform="translate(-0.09 -57.06)" style="fill: url(#Sfumatura_senza_nome_64)"/>
          </g>
        </g>
        <g id="Group_Copy_1-2" data-name="Group Copy 1">
          <g id="Path_219-2" data-name="Path 219">
            <path d="M179.51,166.35l-.07.2,0,.09c-.14.39-.29.82-.44,1.26-.69,2-1.37,4.47-1.26,5.48,0,.37.19.56.48.44,1.21-.45.63-.43,1.86-.74l.24-.06c1.54-.38,1.11-1.06,2,.28h0v0c.95,1.54,7.55,16.12,9.24,19.42.31.6.62,1.3.92,2.06.95,2.35,1.89,5.25,2.72,7.2a7.23,7.23,0,0,0,1.1,2h0c1.24,1.27,69.23-37.84,69.23-37.84s-3.61-7.58-4.79-10.27c-1-2.28-3.27-7.72-4-9.31-.46-1-1.15-3-1.81-4.6a51.63,51.63,0,0,0-3.15-6c-.92-.79-1.27-.12-5.47,1.67l-.12,0C240.71,139.93,180.63,163.29,179.51,166.35Z" transform="translate(-0.09 -57.06)" style="fill: url(#Sfumatura_senza_nome_65)"/>
          </g>
          <g id="Path_216-3" data-name="Path 216">
            <path d="M179.4,166.64c-.14.39-.29.83-.44,1.3a24.29,24.29,0,0,0-1.26,5.44c0,.67.12,1,.5.9a20.94,20.94,0,0,0,1.91-1c.85-.44,1.66-.68,2.15.08s5,11.22,8.76,19.7c1.64,3.68,3.14,7,4.13,9a12.8,12.8,0,0,0,1.11,2c1.24,1.27,63.14-32.67,69.22-38l-2,.45L195.9,197.13S188.3,177.76,185,172.5c-1.31-2.06-3.23-4.86-5.53-5.95a.42.42,0,0,0,0,.1Z" transform="translate(-0.09 -57.06)" style="fill-rule: evenodd;fill: url(#Sfumatura_senza_nome_66)"/>
          </g>
          <g id="Path_218-2" data-name="Path 218">
            <path d="M246.24,137.67l-.12,0c-5.41,2.22-65.49,25.58-66.61,28.64l-.07.2,0,.09c-.14.39-.29.82-.44,1.26v0a.91.91,0,0,0,0,.17,12.05,12.05,0,0,0,1.09,5l.07.16h.25c.75-.36,1.46-.49,1.89.19h0c.54.86,5,11.24,8.76,19.7a15.06,15.06,0,0,0,1.41,1.81,9.09,9.09,0,0,0,2.71,2c5.66,2.69,13.77-1.18,19.1-3.09,13.62-4.88,24.78-11,37-18.93,4-2.61,14.29-8.43,14.29-8.43,0-1.15-4.46-9.41-5-10.66-.76-1.69-3.09-7.57-3.85-9.16-.46-1-2.72-7.11-5.05-10.71C250.8,135.1,247.54,137.23,246.24,137.67Z" transform="translate(-0.09 -57.06)" style="fill: url(#Sfumatura_senza_nome_67)"/>
          </g>
        </g>
        <g id="Group_Copy_2" data-name="Group Copy 2">
          <g id="Path_219-3" data-name="Path 219">
            <path d="M248.65,129.64l-.07.2,0,.09c-.14.38-.29.81-.44,1.25a19.17,19.17,0,0,0-1.26,5.48c0,.38.19.56.49.45,1.2-.45.62-.43,1.85-.75l.24-.06c1.54-.38,1.11-1.06,2,.28v0h0v0c1,1.54,7.55,16.12,9.24,19.42.31.6.62,1.3.92,2.06.95,2.36,1.89,5.25,2.72,7.2a7.34,7.34,0,0,0,1.1,2h0c1.24,1.28,69.24-37.83,69.24-37.83s-3.62-7.59-4.81-10.28c-1-2.27-3.26-7.72-4-9.3-.47-1-1.16-3-1.82-4.61a50.13,50.13,0,0,0-3.15-6c-.92-.78-1.27-.12-5.46,1.67l-.13,0C309.85,103.22,249.77,126.57,248.65,129.64Z" transform="translate(-0.09 -57.06)" style="fill: url(#Sfumatura_senza_nome_68)"/>
          </g>
          <g id="Path_216-4" data-name="Path 216">
            <path d="M248.54,129.93c-.14.39-.29.83-.44,1.29a24.41,24.41,0,0,0-1.26,5.44c0,.67.12,1,.5.9a20.67,20.67,0,0,0,1.91-1c.85-.45,1.66-.69,2.15.07s5,11.22,8.76,19.7c1.64,3.68,3.14,7,4.13,9a12.8,12.8,0,0,0,1.11,2c1.24,1.28,63.15-32.67,69.21-38l-2,.46L265,160.41s-7.59-19.36-10.93-24.62c-1.31-2.07-3.23-4.86-5.53-5.95a.36.36,0,0,0,0,.09Z" transform="translate(-0.09 -57.06)" style="fill-rule: evenodd;fill: url(#Sfumatura_senza_nome_69)"/>
          </g>
          <g id="Path_218-3" data-name="Path 218">
            <path d="M315.39,101l-.13,0c-5.41,2.23-65.49,25.58-66.61,28.65l-.07.2,0,.09c-.14.38-.29.81-.44,1.25v0a1,1,0,0,0,0,.17,12.05,12.05,0,0,0,1.09,5l.07.17h.25c.75-.35,1.46-.48,1.89.2h0c.54.86,5,11.24,8.76,19.7a15.06,15.06,0,0,0,1.41,1.81,9,9,0,0,0,2.71,2c5.66,2.68,13.77-1.19,19.1-3.1,13.63-4.88,24.78-11,37-18.93,4-2.61,14.27-8.43,14.27-8.43,0-1.15-4.45-9.4-5-10.66-.75-1.69-3.09-7.57-3.84-9.15-.47-1-2.73-7.12-5.06-10.72C319.94,98.39,316.69,100.52,315.39,101Z" transform="translate(-0.09 -57.06)" style="fill: url(#Sfumatura_senza_nome_70)"/>
          </g>
        </g>
        <g id="Group_Copy_1-3" data-name="Group Copy 1">
          <g id="Path_219-4" data-name="Path 219">
            <path d="M316.56,93.72l-.08.2,0,.08c-.14.39-.3.82-.44,1.26a19.61,19.61,0,0,0-1.27,5.48c.05.38.19.56.49.45a9.79,9.79,0,0,1,1.86-.75l.24-.06c1.53-.38,1.11-1.06,2,.28v0h0l0,0c.95,1.54,7.55,16.12,9.24,19.42.3.6.61,1.3.93,2.06.94,2.36,1.88,5.25,2.71,7.2a7.51,7.51,0,0,0,1.1,2h0c1.24,1.28,69.23-37.83,69.23-37.83s-3.62-7.59-4.8-10.28c-1-2.27-3.26-7.72-4-9.3-.45-1-1.14-3-1.8-4.61a50.13,50.13,0,0,0-3.15-6c-.92-.78-1.27-.12-5.48,1.67l-.11,0C377.75,67.3,317.67,90.65,316.56,93.72Z" transform="translate(-0.09 -57.06)" style="fill: url(#Sfumatura_senza_nome_71)"/>
          </g>
          <g id="Path_216-5" data-name="Path 216">
            <path d="M316.45,94c-.14.4-.3.84-.45,1.3a25.45,25.45,0,0,0-1.26,5.44c0,.67.13,1,.5.9.57-.21,1.26-.69,1.92-1,.84-.45,1.66-.69,2.14.07s5,11.22,8.76,19.7c1.65,3.68,3.15,7,4.14,9a11.22,11.22,0,0,0,1.11,2c1.24,1.28,63.13-32.67,69.21-38l-2,.45L333,124.49s-7.6-19.36-10.94-24.62c-1.31-2.07-3.22-4.86-5.53-6a.32.32,0,0,1,0,.09Z" transform="translate(-0.09 -57.06)" style="fill-rule: evenodd;fill: url(#Sfumatura_senza_nome_72)"/>
          </g>
          <g id="Path_218-4" data-name="Path 218">
            <path d="M383.28,65l-.11,0c-5.42,2.23-65.5,25.58-66.61,28.65l-.08.2,0,.08c-.14.39-.3.82-.44,1.26v.21a11.9,11.9,0,0,0,1.09,5l.07.17h.25c.75-.35,1.45-.48,1.89.2h0c.55.86,5,11.24,8.76,19.7a14.24,14.24,0,0,0,1.43,1.81,8.76,8.76,0,0,0,2.69,2c5.66,2.68,13.78-1.19,19.1-3.1,13.62-4.88,24.79-11,37-18.93,4-2.61,14.29-8.43,14.29-8.43,0-1.15-4.45-9.4-5-10.66-.75-1.69-3.09-7.57-3.86-9.15-.45-1-2.72-7.12-5-10.72C387.84,62.47,384.58,64.6,383.28,65Z" transform="translate(-0.09 -57.06)" style="fill: url(#Sfumatura_senza_nome_73)"/>
          </g>
        </g>
      </g>
      <g id="Group_Copy" data-name="Group Copy">
        <g id="Tegola_ultima-2" data-name="Tegola ultima">
          <g id="Path_3-2" data-name="Path 3">
            <path d="M760.29,239.31l.08.2,0,.09c.14.39.3.81.44,1.26.36,1.06-2.66,11.5-6.67,20.77-3.43,8-7.73,15-8.86,15.72a.25.25,0,0,1-.17.06l-.36-.11-1.28-.41c-1.18,1.2-61.55-33.23-68.7-37.31l-.67-.39s3.62-7.57,4.81-10.26c1-2.27,3.27-7.7,4-9.28.46-1,1.15-3,1.82-4.6a51.21,51.21,0,0,1,3.15-6c.47-.4.78-.43,1.5-.14s1.87.9,4,1.79l.13.05C699,213,759.18,236.26,760.29,239.31Z" transform="translate(-0.09 -57.06)" style="fill: url(#Sfumatura_senza_nome_74)"/>
          </g>
          <g id="Path_216-6" data-name="Path 216">
            <path d="M760.4,239.6c.18.4.36.84.55,1.31.74,1.91-2.33,9.19-5.56,17.78-1.41,3.72-7.49,14.72-8.38,16.76a11.49,11.49,0,0,1-1,2c-1.19,1.29-65.69-33.09-71.88-38.38l2,.45,69.76,31s12.23-29.86,14.44-31a.16.16,0,0,1,0,.09Z" transform="translate(-0.09 -57.06)" style="fill-rule: evenodd;fill: url(#Sfumatura_senza_nome_75)"/>
          </g>
          <g id="Path_2-2" data-name="Path 2">
            <path d="M740.72,277.93l-1.28-.41c-1.16,1.2-61.55-33.23-68.68-37.31,1.52-3.18,3.92-7.61,4.34-8.54.83-1.86,3.43-8.36,4.28-10.1.52-1.08,3-7.85,5.64-11.83a.67.67,0,0,1,.39-.17c.72.29,1.87.9,4,1.79l.11,0c5.44,2.21,65.62,25.48,66.75,28.53l.08.2,0,.09c.14.39.28.81.44,1.26.36,1.06-2.66,11.5-6.68,20.77-3.44,8-7.72,15-8.86,15.72Z" transform="translate(-0.09 -57.06)" style="fill: url(#Sfumatura_senza_nome_76)"/>
          </g>
        </g>
        <g id="Group_Copy_1-4" data-name="Group Copy 1">
          <g id="Path_219-5" data-name="Path 219">
            <path d="M691,202.72l.08.2,0,.09c.14.39.3.81.45,1.26.69,2,1.37,4.45,1.26,5.46-.05.38-.19.56-.49.45-1.2-.45-.62-.43-1.86-.75l-.24-.06c-1.53-.37-1.11-1.05-2,.29h0v0c-.94,1.54-7.57,16.09-9.26,19.39a20.23,20.23,0,0,0-.93,2.06c-.95,2.35-1.89,5.23-2.74,7.18a7,7,0,0,1-1.1,2h0c-1.25,1.28-69.36-37.7-69.36-37.7s3.63-7.57,4.81-10.25c1-2.27,3.27-7.71,4-9.29.47-1,1.14-3,1.82-4.59a50.55,50.55,0,0,1,3.16-6c.91-.79,1.27-.13,5.49,1.66l.11,0C629.71,176.41,689.91,199.67,691,202.72Z" transform="translate(-0.09 -57.06)" style="fill: url(#Sfumatura_senza_nome_77)"/>
          </g>
          <g id="Path_216-7" data-name="Path 216">
            <path d="M691.13,203c.14.39.3.83.45,1.29a24.92,24.92,0,0,1,1.26,5.43c0,.67-.13,1-.5.9a18.39,18.39,0,0,1-1.91-1c-.85-.44-1.68-.68-2.17.08s-5,11.2-8.79,19.66c-1.64,3.67-3.15,7-4.15,9a11.48,11.48,0,0,1-1.1,2c-1.25,1.28-63.27-32.55-69.35-37.82l2,.45,67.72,30.51s7.62-19.32,11-24.58c1.32-2.06,3.25-4.85,5.55-5.94a.38.38,0,0,1,0,.1Z" transform="translate(-0.09 -57.06)" style="fill-rule: evenodd;fill: url(#Sfumatura_senza_nome_78)"/>
          </g>
          <g id="Path_218-5" data-name="Path 218">
            <path d="M624.18,174.15l.11,0c5.42,2.22,65.62,25.48,66.73,28.53l.08.2,0,.09c.14.39.3.81.45,1.26v.2a11.82,11.82,0,0,1-1.09,5l-.06.17h-.26c-.75-.35-1.45-.48-1.89.2h0c-.53.86-5,11.22-8.79,19.66a16.15,16.15,0,0,1-1.41,1.81,9.09,9.09,0,0,1-2.71,2c-5.67,2.68-13.8-1.18-19.15-3.08-13.64-4.86-24.82-11-37.07-18.86-4-2.61-14.32-8.4-14.32-8.4,0-1.15,4.48-9.39,5-10.64.77-1.69,3.1-7.56,3.87-9.14.47-1,2.73-7.1,5.08-10.69C619.6,171.59,622.86,173.72,624.18,174.15Z" transform="translate(-0.09 -57.06)" style="fill: url(#Sfumatura_senza_nome_79)"/>
          </g>
        </g>
        <g id="Group_Copy_1-5" data-name="Group Copy 1">
          <g id="Path_219-6" data-name="Path 219">
            <path d="M621,166l.08.2,0,.09c.14.39.3.81.44,1.26a19.43,19.43,0,0,1,1.27,5.46c-.05.38-.19.56-.49.45-1.22-.45-.62-.43-1.86-.75l-.24-.06c-1.55-.37-1.11-1.05-2,.29h0v0c-.94,1.54-7.57,16.09-9.28,19.39-.3.6-.61,1.3-.91,2-.95,2.35-1.89,5.24-2.74,7.19a7,7,0,0,1-1.1,2h0c-1.25,1.28-69.36-37.7-69.36-37.7s3.63-7.57,4.81-10.25c1-2.27,3.27-7.71,4-9.29.47-1,1.14-3,1.82-4.6a49.73,49.73,0,0,1,3.15-6c.92-.79,1.27-.13,5.48,1.65l.13.05C559.7,139.65,619.9,162.92,621,166Z" transform="translate(-0.09 -57.06)" style="fill: url(#Sfumatura_senza_nome_80)"/>
          </g>
          <g id="Path_216-8" data-name="Path 216">
            <path d="M621.12,166.26c.14.39.3.83.46,1.29a25.42,25.42,0,0,1,1.25,5.43c0,.67-.13,1-.5.9a20.83,20.83,0,0,1-1.93-1c-.85-.45-1.66-.69-2.15.07s-5,11.2-8.79,19.67c-1.64,3.67-3.15,7-4.15,9a11.48,11.48,0,0,1-1.1,2c-1.25,1.28-63.27-32.55-69.35-37.82l2,.45,67.72,30.51s7.62-19.33,11-24.58c1.32-2.06,3.25-4.85,5.55-5.94a.32.32,0,0,0,0,.09Z" transform="translate(-0.09 -57.06)" style="fill-rule: evenodd;fill: url(#Sfumatura_senza_nome_81)"/>
          </g>
          <g id="Path_218-6" data-name="Path 218">
            <path d="M554.15,137.39l.13.05C559.7,139.65,619.9,162.92,621,166l.08.2,0,.09c.14.39.3.81.44,1.26l0,0v.17a12,12,0,0,1-1.1,5l-.08.17h-.25c-.75-.35-1.46-.48-1.9.2h0c-.53.86-5,11.23-8.79,19.67a16,16,0,0,1-1.41,1.8,9,9,0,0,1-2.71,2c-5.67,2.69-13.8-1.17-19.15-3.07-13.64-4.86-24.83-11-37.08-18.87-4-2.6-14.31-8.39-14.31-8.39,0-1.15,4.47-9.39,5-10.64.77-1.69,3.1-7.56,3.87-9.14.47-1,2.73-7.1,5.08-10.69C549.59,134.84,552.85,137,554.15,137.39Z" transform="translate(-0.09 -57.06)" style="fill: url(#Sfumatura_senza_nome_82)"/>
          </g>
        </g>
        <g id="Group_Copy_2-2" data-name="Group Copy 2">
          <g id="Path_219-7" data-name="Path 219">
            <path d="M551.74,129.39l.08.2,0,.08c.14.39.3.82.45,1.26.69,2,1.37,4.45,1.26,5.46,0,.38-.19.56-.49.45-1.21-.45-.63-.43-1.86-.75L551,136c-1.54-.37-1.11-1.05-2,.29h0l0,0c-.94,1.54-7.56,16.09-9.26,19.39-.31.6-.62,1.3-.92,2.06-1,2.35-1.9,5.23-2.73,7.18a7.2,7.2,0,0,1-1.11,2h0c-1.25,1.28-69.37-37.7-69.37-37.7s3.64-7.57,4.81-10.25c1-2.27,3.28-7.71,4.05-9.29.47-1,1.16-3,1.81-4.59a51.28,51.28,0,0,1,3.17-6c.92-.79,1.27-.13,5.48,1.66l.11,0C490.42,103.07,550.63,126.33,551.74,129.39Z" transform="translate(-0.09 -57.06)" style="fill: url(#Sfumatura_senza_nome_83)"/>
          </g>
          <g id="Path_216-9" data-name="Path 216">
            <path d="M551.85,129.67c.14.39.3.83.45,1.29a25.65,25.65,0,0,1,1.26,5.43c0,.67-.13,1-.51.9a20.67,20.67,0,0,1-1.91-1c-.84-.44-1.66-.68-2.16.08s-5,11.2-8.79,19.66c-1.63,3.67-3.15,7-4.14,9a12.8,12.8,0,0,1-1.11,2c-1.25,1.27-63.27-32.56-69.35-37.83l2,.45L535.3,160.1s7.63-19.32,11-24.57c1.32-2.07,3.24-4.86,5.55-5.94a.32.32,0,0,1,0,.09Z" transform="translate(-0.09 -57.06)" style="fill-rule: evenodd;fill: url(#Sfumatura_senza_nome_84)"/>
          </g>
          <g id="Path_218-7" data-name="Path 218">
            <path d="M484.89,100.81l.11,0c5.42,2.22,65.63,25.48,66.74,28.54l.08.2,0,.08c.14.39.3.82.45,1.26v.21a12,12,0,0,1-1.09,5l-.07.17h-.25c-.75-.35-1.46-.48-1.89.2h0c-.53.86-5,11.22-8.79,19.66a16.15,16.15,0,0,1-1.41,1.81,9.22,9.22,0,0,1-2.71,2c-5.67,2.68-13.81-1.18-19.15-3.08-13.65-4.86-24.82-11-37.07-18.86-4-2.6-14.32-8.4-14.32-8.4,0-1.15,4.48-9.39,5-10.64.75-1.69,3.09-7.56,3.86-9.14.47-1,2.72-7.1,5.07-10.69C480.32,98.25,483.58,100.38,484.89,100.81Z" transform="translate(-0.09 -57.06)" style="fill: url(#Sfumatura_senza_nome_85)"/>
          </g>
        </g>
        <g id="Group_Copy_1-6" data-name="Group Copy 1">
          <g id="Path_219-8" data-name="Path 219">
            <path d="M483.72,93.59l.06.2,0,.09c.16.39.3.81.46,1.26.69,2,1.36,4.45,1.25,5.46,0,.38-.19.56-.49.45a9.29,9.29,0,0,0-1.86-.75l-.24-.06c-1.53-.37-1.11-1-2,.29h0l0,0c-.95,1.54-7.58,16.09-9.27,19.39-.31.59-.61,1.3-.93,2.05-.95,2.35-1.89,5.24-2.72,7.19a7.2,7.2,0,0,1-1.11,2h0c-1.24,1.28-69.37-37.7-69.37-37.7s3.63-7.57,4.81-10.26c1-2.26,3.27-7.7,4-9.28.47-1,1.16-3,1.82-4.6a52.71,52.71,0,0,1,3.16-6c.93-.79,1.27-.13,5.49,1.65l.11,0C422.41,67.27,482.59,90.54,483.72,93.59Z" transform="translate(-0.09 -57.06)" style="fill: url(#Sfumatura_senza_nome_86)"/>
          </g>
          <g id="Path_216-10" data-name="Path 216">
            <path d="M483.81,93.88c.16.39.3.83.46,1.29a25.42,25.42,0,0,1,1.25,5.43c0,.67-.13,1-.5.9-.57-.21-1.25-.69-1.91-1-.85-.45-1.66-.69-2.15.07s-5,11.2-8.81,19.67c-1.63,3.67-3.14,7-4.13,9a13.41,13.41,0,0,1-1.11,2c-1.24,1.28-63.26-32.55-69.36-37.82l2,.45,67.71,30.51s7.63-19.33,11-24.58c1.32-2.06,3.25-4.85,5.55-5.94l.05.09Z" transform="translate(-0.09 -57.06)" style="fill-rule: evenodd;fill: url(#Sfumatura_senza_nome_87)"/>
          </g>
          <g id="Path_218-8" data-name="Path 218">
            <path d="M416.86,65l.11,0c5.44,2.21,65.62,25.48,66.75,28.53l.06.2,0,.09c.16.39.3.81.46,1.26v.2a11.69,11.69,0,0,1-1.1,5l-.06.17h-.25c-.76-.35-1.46-.48-1.9.2h0c-.55.86-5,11.22-8.81,19.67a12.44,12.44,0,0,1-1.41,1.8,8.54,8.54,0,0,1-2.71,2c-5.67,2.69-13.8-1.17-19.14-3.07-13.65-4.86-24.82-11-37.08-18.87-4-2.6-14.32-8.39-14.32-8.39,0-1.15,4.48-9.39,5.05-10.64.75-1.69,3.08-7.56,3.85-9.14.47-1,2.74-7.1,5.08-10.69C412.28,62.46,415.56,64.58,416.86,65Z" transform="translate(-0.09 -57.06)" style="fill: url(#Sfumatura_senza_nome_88)"/>
          </g>
        </g>
      </g>
      <g id="Path">
        <path d="M400.19,57.06c11.72,0,21.21,11.33,21.21,25.29s-9.49,25.29-21.21,25.29S379,96.32,379,82.35,388.47,57.06,400.19,57.06Z" transform="translate(-0.09 -57.06)" style="fill-rule: evenodd;fill: url(#Sfumatura_senza_nome_89)"/>
      </g>
    </g>
    <g id="Group-2" data-name="Group">
      <g id="Group-3" data-name="Group">
        <g id="Group-4" data-name="Group">
          <path id="Path-2" data-name="Path" d="M169.74,337.65c-9.23.71-7.51,19.33,1.46,18.4,4.8-.5,7.13-12.39,5.36-16.19-1.07-2.29-4-4-5.48-6.14" transform="translate(-0.09 -57.06)" style="fill: #ffae3c"/>
          <g id="Compound_Group" data-name="Compound Group">
            <path d="M124.62,435.53a.12.12,0,0,1-.11-.13l.11-144.55a.16.16,0,0,1,0-.11c1.71-1.15,44.2-29.86,51.07-25.16h0c12.72,6,17.93,58.05-7.63,79.73a.13.13,0,0,0,0,.22c21.65,3.73,24.85,37,14.77,72.26v0c-.44,7.1-7.34,15.19-12,16.18C159.74,436.36,126.78,435.58,124.62,435.53Zm24.57-35.87a.13.13,0,0,1-.13-.13l-.33-24.25a.13.13,0,0,1,.08-.13c.95-.33,10-3.46,13-2.57a.11.11,0,0,1,.07.06c4.39,10,2.72,18.28-.4,23C159.75,397.94,150.4,399.47,149.19,399.66Zm-.64-66c-.07,0-.13,0-.13-.12L148,310.3a.15.15,0,0,1,.07-.12c.85-.39,9.07-4.18,11.8-3.57a.11.11,0,0,1,.08.07c4.2,9.61,2.81,17.95,0,22.72C158.35,331.74,149.72,333.45,148.55,333.67Z" transform="translate(-0.09 -57.06)" style="fill: #ffae3c;fill-rule: evenodd"/>
            <path d="M124.48,444.05l4.52.09c7.24.11,14.47.12,21.35,0,9.76-.22,17.31-.76,22-1.72l.29-.07c9.07-2.67,16.83-12.62,18.08-23.67.64-5.63-7.11-6.69-7.77-1.06l-.06.5c-.65,5.46,6.76,6.77,7.73,1.36l0-.14c.89-5.42-6.46-7.1-7.66-1.76l-.12.51c-1.2,5.36,6,7.55,7.55,2.28,5.46-19.15,7.21-37.35,4.74-52-2.13-13.27-8.34-23.75-17.89-28.63l1.19,6.77c10.13-11.77,15.3-28.65,15.66-46.73,0-20.84-4.66-36-15-41.84l-1.81,3.78-1.71,3.84.32.16c4.59,2.42,8.06-4.93,3.57-7.58h0c-4.53-2.67-8.29,4.61-3.84,7.43l.11.07.11.07,2-3.68,1.65-3.87a13.63,13.63,0,0,0-7.55-1.5,21.18,21.18,0,0,0-4.79,1.06c-1,.33-4.6,1.66-4.46,1.61l-.17.06-.18.06a158.64,158.64,0,0,0-17.72,9c-5.27,3-10.76,6.41-16.18,9.89-1.94,1.25-3.76,2.44-5.42,3.53l-2.47,1.65a8.13,8.13,0,0,0-2.76,3.21.17.17,0,0,1,0,.07,9.14,9.14,0,0,0-1,4.06c0,40.16,0,72.32-.1,144.56a8.89,8.89,0,0,0,2.21,5.94l.11.12A7.49,7.49,0,0,0,124.48,444.05Zm.11-8.52s0,0,0,0l-.11-.13s0,0,0,0c.06-72.24.08-104.39.11-144.55,0,0,0,0,0,0a.49.49,0,0,1,.06-.13h0l2.4-1.6c1.63-1.08,3.42-2.25,5.33-3.48,5.33-3.42,10.71-6.73,15.87-9.69a149.9,149.9,0,0,1,16.83-8.6l-.17.06.17-.06s3.45-1.27,4.3-1.54a14.06,14.06,0,0,1,3.14-.74,6.36,6.36,0,0,1,3.63.74c4.52,2.29,7.93-4.81,3.62-7.55l-.11-.07-.11-.07-2,3.69-1.87,3.75h0l1.87-3.75,1.71-3.83-.31-.17c-4.63-2.44-8.08,5-3.52,7.62,7,4,10.8,16.31,10.8,34.19-.33,16-4.88,30.93-13.55,41a4.46,4.46,0,0,0,1.2,6.77c7,3.57,11.78,11.64,13.51,22.41,2.22,13.19.6,30.06-4.51,48l3.74,1.26,3.81,1c0-.26,0-.26.11-.52l-3.8-1-3.86-.74h0l3.84.81,3.89.54.06-.51-3.89-.54L183,417.6c-.86,7.64-6.38,14.73-12.34,16.48l.3-.08c-4.14.85-11.38,1.37-20.73,1.58-6.77.15-13.92.14-21.06,0Z" transform="translate(-0.09 -57.06)" style="fill: #d43c39"/>
          </g>
          <path id="Path-3" data-name="Path" d="M149.25,399.66a.15.15,0,0,1-.15-.14l-.37-27.39a.14.14,0,0,1,.09-.13c1.07-.38,11.28-3.92,14.64-2.91a.13.13,0,0,1,.08.07c5,11.28,3.07,20.63-.45,25.94C161.17,397.72,150.62,399.44,149.25,399.66Z" transform="translate(-0.09 -57.06)" style="fill: #ffae3c;fill-opacity: 0;stroke: #d43c39;stroke-linecap: square;stroke-linejoin: round;stroke-width: 5px"/>
          <path id="Path-4" data-name="Path" d="M145.81,339a.13.13,0,0,1-.16-.14L145.09,311a.15.15,0,0,1,.08-.14c1-.47,10.85-5,14.12-4.27a.16.16,0,0,1,.1.08c5,11.49,3.35,21.46,0,27.17C157.53,336.67,147.21,338.73,145.81,339Z" transform="translate(-0.09 -57.06)" style="fill: #ffae3c;fill-opacity: 0;stroke: #d43c39;stroke-linecap: square;stroke-linejoin: round;stroke-width: 5px"/>
        </g>
        <g id="Group-5" data-name="Group">
          <path id="Path-5" data-name="Path" d="M224.25,395.22c-4-.55-8.94,7.14-3.79,9.27,2.68,1.1,5.55-.53,8.27-.54,7.76-.06,15.22-.78,23-.73,2.42,0,8.55,3.74,9.69,0,1.27-4.11-3.56-7.71-6.69-7.87-5.7-.28-11.34-1.71-17.08-1.76C233.75,393.59,227.9,396.36,224.25,395.22Z" transform="translate(-0.09 -57.06)" style="fill: #ffae3c"/>
          <g id="Compound_Group-2" data-name="Compound Group">
            <path d="M204.31,435.8a2.37,2.37,0,0,1-2.25-2.8l28.67-200.45a.13.13,0,0,1,.07-.09l18.59-10.32a.12.12,0,0,1,.17.1l27.57,213.21a.12.12,0,0,1-.11.14l-17.91-.3a.11.11,0,0,1-.11-.11l-1.95-36.28a.12.12,0,0,0-.12-.12l-34.17,1.27a.12.12,0,0,0-.11.11l-4,35.2a.13.13,0,0,1-.11.12Zm31.45-83.4L240,303.75l3.78,48.47Z" transform="translate(-0.09 -57.06)" style="fill: #ffae3c;fill-rule: evenodd"/>
            <path d="M204.48,444.32l14.25-.32a7.5,7.5,0,0,0,5.1-2.21l.12-.13a8.69,8.69,0,0,0,2.5-5.25c1.16-10.3,2.35-20.83,3.58-31.7l-3.75,3.74,27.21-1-4.05-4,1.74,32.24a8.78,8.78,0,0,0,2.4,5.67l.11.11a7.47,7.47,0,0,0,5.3,2.37l17.91.3a7.56,7.56,0,0,0,6-2.88l.13-.16a9,9,0,0,0,1.88-6.82c-10.61-82-19.26-148.92-27.58-213.21a8.54,8.54,0,0,0-4.14-6.38l-.16-.09a7.29,7.29,0,0,0-7.18,0l-18.59,10.31a7.94,7.94,0,0,0-2.8,2.61l0,.06a9,9,0,0,0-1.41,3.71c-9.1,63.67-18.56,129.76-28.67,200.45-.93,6.77,3.87,12.74,10.13,12.64Zm-.15-8.52a2.36,2.36,0,0,1-2.26-2.82c10.11-70.67,19.56-136.76,28.66-200.43,0,0,0,0,0,0l.07-.11s0,0,0,0l18.59-10.32h0l.17.1h0c8.31,64.29,17,131.18,27.57,213.21h0l-.11.14h0l-17.91-.3s0,0,0,0l-.12-.13h0q-.87-16.12-1.73-32.25a4.07,4.07,0,0,0-4-4l-27.21,1a4.06,4.06,0,0,0-3.76,3.74c-1.23,10.87-2.41,21.4-3.58,31.69,0,0,0,0,0,0l-.11.1s0,0,0,0l-14.25.32Z" transform="translate(-0.09 -57.06)" style="fill: #d43c39"/>
          </g>
          <g id="Path-6" data-name="Path">
            <path d="M235.89,359.22l8-.18c3.59-.08,6.44-3.55,6.11-7.44-1.08-12.83-1.94-23.09-3.88-46.17a6.24,6.24,0,0,0-12.48,0c-1.28,14.47-2.63,29.59-4.12,46.36C229.16,355.76,232.19,359.31,235.89,359.22Zm-.13-6.82c.05,0,0,0,0,0,1.49-16.77,2.83-31.88,4.12-46.35,0,.12,0,.12,0,0,1.94,23.08,2.8,33.34,3.88,46.17,0-.05,0,0,0,0Z" transform="translate(-0.09 -57.06)" style="fill: #d43c39"/>
          </g>
        </g>
        <g id="Group-6" data-name="Group">
          <path id="Path-7" data-name="Path" d="M303,234.09c7.08-6.53,17.33-11.81,26.73-11.79,3.31,0,9.39.36,10.25,4.7,1,5.27-4.26,9.3-7.72,11.76-5,3.52-9,6.18-14.59,8.49-2.34,1-4.22,2.54-6.82,1.72-1.77-.56-2.85-2.38-4.21-3.55-2.54-2.17-3.92-4.11-4.12-7.76" transform="translate(-0.09 -57.06)" style="fill: #ffae3c"/>
          <g id="Path-8" data-name="Path">
            <path d="M312.63,437.78a.12.12,0,0,1-.13-.12l.27-199.1a.12.12,0,0,0-.16-.12L288.08,248.7a.12.12,0,0,1-.16-.12l1.13-49.35a.14.14,0,0,1,.06-.11l63.66-33.86c.06,0,.16,0,.16.11l.81,56.49c0,.06,0,.1-.06.12l-24.62,11.34a.14.14,0,0,0-.06.11l1,203.93a.14.14,0,0,1-.13.13Z" transform="translate(-0.09 -57.06)" style="fill: #ffae3c"/>
            <path d="M312.75,446.31,330,446a7.46,7.46,0,0,0,5.46-2.55l.13-.14a8.91,8.91,0,0,0,2.24-6c-.52-100.59-.52-100.59-1-201.18l-2.4,4L345.6,235l11.14-5.13a7.92,7.92,0,0,0,3.49-3.18.75.75,0,0,0,.09-.15,9,9,0,0,0,1.26-4.77c-.22-15.68-.41-28.17-.82-56.49a8.69,8.69,0,0,0-3.73-7.13l-.17-.12a7.3,7.3,0,0,0-7.54-.39l-63.65,33.86a7.94,7.94,0,0,0-3.16,3.06l-.05.08a9,9,0,0,0-1.25,4.41q-.56,24.87-1.12,49.36a8.77,8.77,0,0,0,3.32,7.18l.15.12a7.32,7.32,0,0,0,7.33,1l19.36-8.09-5.32-4c-.07,59.78-.17,122.31-.26,193.07a8.87,8.87,0,0,0,2.35,6.08.4.4,0,0,0,.11.12A7.47,7.47,0,0,0,312.75,446.31Zm-.12-8.53s0,0,0,0l-.13-.12h0c.1-70.76.19-133.29.27-193.07,0-3-2.76-5.06-5.33-4l-19.36,8.09h0a.83.83,0,0,1-.16-.12h0q.56-24.5,1.13-49.35s0,0,0,0l.06-.12s0,0,0,0l63.66-33.86h0l.16.11h0c.41,28.32.59,40.81.81,56.49,0,0,0,0,0,0l-.06.11s0,0,0,0l-11.14,5.13-11.14,5.13a4.26,4.26,0,0,0-2.38,3.95c.5,100.59.5,100.59,1,201.17,0,0,0,0,0,0l-.11.12h0Z" transform="translate(-0.09 -57.06)" style="fill: #d43c39"/>
          </g>
        </g>
        <g id="Path-9" data-name="Path">
          <path d="M372.59,436.25a.12.12,0,0,1-.11-.13l-.28-282.67a.12.12,0,0,1,.08-.11l17.14-9c.08,0,.16,0,.16.11l-1.13,291.27a.13.13,0,0,1-.11.13Z" transform="translate(-0.09 -57.06)" style="fill: #ffae3c"/>
          <path d="M372.77,444.77l15.73-.36a7.53,7.53,0,0,0,5.42-2.54.69.69,0,0,1,.11-.13,8.93,8.93,0,0,0,2.25-5.94c.32-80.91.57-145.64,1.13-291.28a8.73,8.73,0,0,0-3.63-7.24.56.56,0,0,1-.17-.11,7.31,7.31,0,0,0-7.59-.48l-17.14,9a7.94,7.94,0,0,0-3.24,3.16l-.07.1a9.15,9.15,0,0,0-1.2,4.55c.08,78.53.14,141.43.28,282.67a8.88,8.88,0,0,0,2.35,6.09l.11.12A7.51,7.51,0,0,0,372.77,444.77Zm-.18-8.52h0l-.12-.13h0c-.14-141.24-.2-204.14-.28-282.67h0l.08-.12s0,0,0,0l17.14-9h0l.16.11h0c-.57,145.64-.82,210.36-1.13,291.27h0a.43.43,0,0,0-.11.12h0Z" transform="translate(-0.09 -57.06)" style="fill: #d43c39"/>
        </g>
        <g id="Path-10" data-name="Path">
          <path d="M412,147.13a.12.12,0,0,0-.16.12l3,99.19a.13.13,0,0,0,.09.12l7.54,1.57c.06,0,.12,0,.12-.13l2-95.95a.11.11,0,0,0-.07-.12Z" transform="translate(-0.09 -57.06)" style="fill: #ffae3c"/>
          <path d="M407.33,140.26l-.14.11a8.85,8.85,0,0,0-3.21,7.16q1.53,49.6,3,99.2a8.87,8.87,0,0,0,1.86,5.26l.1.11a7.68,7.68,0,0,0,4.49,2.84L421,256.5a7.31,7.31,0,0,0,6.38-1.74l.16-.13a8.76,8.76,0,0,0,2.9-6.44c1-47.63,1.41-69.26,1.94-95.95a8.89,8.89,0,0,0-1.38-5,.5.5,0,0,0-.08-.14,7.89,7.89,0,0,0-3.84-3.19l-12.5-4.8a7.3,7.3,0,0,0-7.24,1.17Zm4.64,6.87h0l12.5,4.8s0,0,0,0l.07.12s0,0,0,0c-.54,26.69-1,48.32-2,95.95,0,0,0,0,0,0l-.12.11s0,0,0,0l-7.54-1.57h0l-.09-.12h0q-1.51-49.59-3-99.19h0l.16-.13Z" transform="translate(-0.09 -57.06)" style="fill: #d43c39"/>
        </g>
        <g id="Group-7" data-name="Group">
          <path id="Path-11" data-name="Path" d="M488.12,292.72c-6.45,4.43-12.61,17.87-3.85,23.91,1.91,1.31,4.4.79,6.55,1.11a11.1,11.1,0,0,0,6.92-.82c5.06-2.55,4.25-10.11,3.25-14.49-.52-2.25.28-5.13-.55-7.21C498.71,290.94,491.55,291.89,488.12,292.72Z" transform="translate(-0.09 -57.06)" style="fill: #ffae3c"/>
          <g id="Compound_Group-3" data-name="Compound Group">
            <path d="M445.25,433.28a.11.11,0,0,1-.11-.12l.16-268.44a.11.11,0,0,1,.14-.12c2.83.94,45.47,15.38,53.24,40.62,9.8,31.81,7.3,75,3.29,84.81a0,0,0,0,1,0,0c-2.7,8.68-9.75,14.2-10.7,14.91a.13.13,0,0,0,0,.18c1,1.27,10.73,13.64,11.91,18.13,1.88,7.16,5.76,22.07,5.78,29.53,0,7.16,4.79,54-12.86,77.38l-.05,0C486,435.15,447.55,433.4,445.25,433.28Zm23.39-158.52a.13.13,0,0,1-.11-.13l.58-41.9a.12.12,0,0,1,.11-.13c.93,0,7.51,0,9,2.89,2.68,5,3.11,10.35,3.69,14.21a128.64,128.64,0,0,1,.95,13.31c0,2.18-.34,6.86-1.32,8.74a8.13,8.13,0,0,1-4.95,3.9,21.73,21.73,0,0,1-4.79-.36C471.07,275.14,469.1,274.83,468.64,274.76ZM469,377.62c-.06,0-.09-.06-.09-.13l.06-44.08a.12.12,0,0,1,.11-.13c.84,0,6.19,0,8,.8a16.13,16.13,0,0,1,5.09,4.88,25.9,25.9,0,0,1,2.12,5.73c.44,1.95,1,5.91,1.16,7.9.15,1.79.39,5.39.39,7.19a65,65,0,0,1-.32,8.49,24.09,24.09,0,0,1-1.83,6.07,10.21,10.21,0,0,1-4.12,3.64C477.78,378.53,470,377.72,469,377.62Z" transform="translate(-0.09 -57.06)" style="fill: #ffae3c;fill-rule: evenodd"/>
            <path d="M444.91,441.8l2.5.11c1.57.06,3.31.11,5.16.16,5.07.13,10.25.17,15.28.1,16.23-.34,25.11-1.27,31.32-4.16a7.31,7.31,0,0,0,1.6-1l.09-.08a7.73,7.73,0,0,0,1.27-1.35c6.55-8.86,10.75-20.39,13.07-34,2.22-13.13,2.55-25.95,1.86-41.24,0-1.09-.2-4.29-.22-4.77-.06-1.37-.09-2.17-.08-2.61v-.17a81.06,81.06,0,0,0-2-15c-.45-2.18-1-4.47-1.55-6.91-.42-1.73-.84-3.47-1.36-5.44-.27-1.08-1.1-4.28-1.15-4.45l0-.17c-1.11-3.74-2.6-6.19-7.29-12.95-1.19-1.7-2.43-3.37-3.7-5l-3,2.71,2.49,3.29a37,37,0,0,0,10.23-16c1.71-5.3-5.56-8.16-7.37-2.89a2.17,2.17,0,0,0-.07.24c-1.82,5.24,5.31,8.3,7.28,3.13l.1-.29c1.78-5.25-5.36-8.27-7.31-3.09l0,.12a.28.28,0,0,0,0,.12c-2,5.23,5.2,8.47,7.22,3.27,2.74-7.05,4.23-20.75,4.18-37.59-.12-19.09-2.46-37.79-7.22-53.31-4.33-12.85-14.53-23.42-28.83-32.28a139,139,0,0,0-19.35-9.85c-3.76-1.58-10.3-4-9.89-3.82a7.19,7.19,0,0,0-7.29,1.21l-.14.11a8.74,8.74,0,0,0-3.15,6.83c0,74.57-.08,134.27-.15,268.43a8.93,8.93,0,0,0,2.13,5.87l.11.12A7.54,7.54,0,0,0,444.91,441.8Zm.34-8.52s0,0,0,0l-.11-.13s0,0,0,0c.08-134.16.11-193.87.16-268.44h0l.16-.12s0,0-.33-.12,6.44,2.38,10,3.87a130.92,130.92,0,0,1,18.3,9.3c12.85,7.95,21.79,17.22,25.3,27.69,4.45,14.46,6.66,32.29,6.79,50.53.05,15.76-1.33,28.52-3.56,34.23l3.61,1.66,3.63,1.61a.61.61,0,0,1,.05-.12.28.28,0,0,1,0-.12l-3.63-1.61L502,290s0,0,0,0l3.62,1.62,3.67,1.5a1.29,1.29,0,0,1,.08-.26l-3.67-1.49L502,290a28.39,28.39,0,0,1-7.82,12.21,4.52,4.52,0,0,0-.53,6c1.21,1.6,2.4,3.2,3.51,4.78,4,5.83,5.33,8,6.06,10.42l3.72-1.32-3.76,1.15c0,.18.86,3.37,1.14,4.44.49,1.92.91,3.63,1.32,5.31.56,2.35,1.06,4.55,1.5,6.63a74,74,0,0,1,1.82,13.21v-.17c0,.73,0,1.68.08,3.26,0,.51.17,3.71.22,4.78.66,14.68.36,26.93-1.74,39.28S501.66,422.6,496,430.21c0,0,.05,0,0,0l0,0,.07,0c-4.89,2.28-13.34,3.16-28.38,3.47-4.9.07-10,0-15-.09l-5.06-.16Z" transform="translate(-0.09 -57.06)" style="fill: #d43c39"/>
          </g>
          <path id="Path-12" data-name="Path" d="M467.28,278.77a.13.13,0,0,1-.11-.13l.63-45.9a.13.13,0,0,1,.12-.14c1,0,8.21-.06,9.84,3.17,2.93,5.46,3.4,11.33,4,15.56a139.11,139.11,0,0,1,1,14.57c0,2.4-.38,7.52-1.44,9.58a9,9,0,0,1-5.42,4.27,23.38,23.38,0,0,1-5.25-.39C470,279.2,467.8,278.85,467.28,278.77Z" transform="translate(-0.09 -57.06)" style="fill: #ffae3c;fill-opacity: 0;stroke: #d43c39;stroke-linecap: square;stroke-linejoin: round;stroke-width: 5px"/>
          <path id="Path-13" data-name="Path" d="M468.14,379.44a.15.15,0,0,1-.12-.14l.08-49.47a.14.14,0,0,1,.14-.14c1.06,0,7.75,0,10,.89a19.38,19.38,0,0,1,6.37,5.48,28.12,28.12,0,0,1,2.66,6.44,80,80,0,0,1,1.44,8.85c.19,2,.49,6,.49,8.07a65.77,65.77,0,0,1-.39,9.53,26,26,0,0,1-2.29,6.81,12.72,12.72,0,0,1-5.16,4.09C479.14,380.47,469.38,379.56,468.14,379.44Z" transform="translate(-0.09 -57.06)" style="fill: #ffae3c;fill-opacity: 0;stroke: #d43c39;stroke-linecap: square;stroke-linejoin: round;stroke-width: 5px"/>
        </g>
        <g id="Group-8" data-name="Group">
          <path id="Path-14" data-name="Path" d="M541.83,392.63c1-3.79,8.56-2.84,11.55-2.88a95.29,95.29,0,0,1,19,1.73c2.46.48,4.2,0,6.41,1.46,1.33.88,3,.77,4.35,1.72,1.9,1.37,2.09,6.13,1.6,8.35-.67,3-7,2.1-9.24,1.83-7.52-.92-15.06-2.55-22.71-2.19-3.73.18-7,3.16-11,2.38-3.26-.64-4.4-8.16-1.47-9.53" transform="translate(-0.09 -57.06)" style="fill: #ffae3c"/>
          <g id="Compound_Group-4" data-name="Compound Group">
            <path d="M523.61,434.35l27.75-211.21,18.85,9.8L598.9,434.6l-18,.6L578.74,399l-35.49-.3-4,35.47Zm31.79-82.51L561,304.32l4.12,47.86Z" transform="translate(-0.09 -57.06)" style="fill: #ffae3c;fill-rule: evenodd"/>
            <path d="M523.69,442.87l15.65-.19a8.18,8.18,0,0,0,7.7-7.49c.48-4.37.89-7.93,1.78-15.85s1.27-11.42,1.77-15.85l-3.91,3.74,14.18.12,14.16.12-3.87-4c.27,4.5.47,8.07.94,16.13s.69,11.67,1,16.13,3.88,8.12,8.05,8l18-.6c4.63-.15,8.21-4.83,7.5-9.82Q592.14,331.43,578,231.64a8.56,8.56,0,0,0-4.37-6.39l-18.85-9.8c-4.7-2.45-10.41.87-11.14,6.48-7.78,59.22-14.48,110.15-27.75,211.21C515.18,438.24,519,442.93,523.69,442.87Zm-.09-8.52c.07,0,0-.08,0,0,13.27-101.06,20-152,27.75-211.21,0,.09.08,0,0,0l18.85,9.8h0q14.22,99.84,28.69,201.66c0-.07-.06,0,0,0l-18,.6s0-.05,0,0c-.27-4.46-.47-8.07-1-16.13s-.67-11.64-.94-16.14a4.09,4.09,0,0,0-3.89-4l-14.16-.11-14.18-.13a4.06,4.06,0,0,0-3.92,3.75c-.5,4.44-.89,7.93-1.78,15.85s-1.29,11.49-1.77,15.85c0,0,0,0,0,0l-15.66.2Z" transform="translate(-0.09 -57.06)" style="fill: #d43c39"/>
          </g>
          <g id="Path-15" data-name="Path">
            <path d="M555.4,351.84l5.65-46.42,4.08,46.76Z" transform="translate(-0.09 -57.06)" style="fill: #ffae3c;fill-opacity: 0;fill-rule: evenodd"/>
            <path d="M555.15,360.36l9.73.34c4.66.16,8.5-4.28,8.06-9.32q-2.06-23.25-4.09-46.77c-.86-9.95-14.35-10.22-15.56-.31q-2.85,23.2-5.66,46.42C547,355.66,550.58,360.2,555.15,360.36Zm.25-8.52c.07,0,0-.07,0,0q2.82-23.2,5.65-46.42c0,.15,0,.15,0,0q2.06,23.52,4.08,46.76c0-.07-.06,0,0,0Z" transform="translate(-0.09 -57.06)" style="fill: #d43c39"/>
          </g>
        </g>
        <g id="Group-9" data-name="Group">
          <path id="Path-16" data-name="Path" d="M634.22,297.07c.89-1.48,4.92-.33,6.52-.19,3.41.31,6,1.75,9.15,3,1,.37,2.05.28,3,.62a9,9,0,0,1,3.94,3.14c1.11,1.29,3.35,3.43,2.8,5.45-.52,1.84-3.15,2.35-4.4,3.37s-2.31,2.35-3.81,2.77c-3.16.88-6-.54-8.6-2.16-3.53-2.17-6-3.72-8.46-7.29-.39-.58-1.18-.72-1.59-1.32-.56-.81-.36-1.83-1-2.67" transform="translate(-0.09 -57.06)" style="fill: #ffae3c"/>
          <g id="Path-17" data-name="Path">
            <path d="M634.64,433.7a.12.12,0,0,1-.11-.13L635,301.16a.11.11,0,0,0-.08-.11l-24.77-9.54a.11.11,0,0,1-.08-.12l.39-36.31a.12.12,0,0,1,.17-.12L675,289.51a.14.14,0,0,1,.06.11l0,27.52a.11.11,0,0,1-.15.12l-24-9.58a.11.11,0,0,0-.15.11l-.41,125.52a.12.12,0,0,1-.11.12Z" transform="translate(-0.09 -57.06)" style="fill: #ffae3c"/>
            <path d="M634.77,442.22l15.57-.27a7.46,7.46,0,0,0,5.44-2.52l.14-.15a8.81,8.81,0,0,0,2.24-5.94c.21-59.81.21-59.81.39-119.61l-5.26,4,18.88,7.55a7.31,7.31,0,0,0,7.18-1,.35.35,0,0,1,.11-.08l0,0a8.77,8.77,0,0,0,3.36-7q0-13.77,0-27.52a8.9,8.9,0,0,0-1.18-4.5l-.08-.12a7.9,7.9,0,0,0-3.18-3.15l-64.33-34.54a7.29,7.29,0,0,0-7.57.38l-.11.07-.05,0a8.69,8.69,0,0,0-3.74,7.17c-.19,18.16-.29,26.23-.39,36.32a9,9,0,0,0,1.41,5l.07.1a7.88,7.88,0,0,0,3.81,3.17l22.22,8.55-2.6-4c-.24,64.73-.35,93.5-.47,129.47a8.75,8.75,0,0,0,2.33,6.1l.11.12A7.46,7.46,0,0,0,634.77,442.22Zm-.13-8.52h0a.46.46,0,0,0-.12-.13h0c.13-36,.24-64.73.47-129.47a4.27,4.27,0,0,0-2.61-4l-22.22-8.56s0,0,0,0a.5.5,0,0,0-.08-.14h0c.11-10.08.2-18.16.39-36.31h0l0,0,.12-.08h0L675,289.51s0,0,0,0l.06.12h0q0,13.75,0,27.52h0l0,0-.1.07h0L656,309.71c-2.55-1-5.24,1-5.26,4-.19,59.8-.19,59.8-.39,119.61h0l-.11.12h0Z" transform="translate(-0.09 -57.06)" style="fill: #d43c39"/>
          </g>
        </g>
      </g>
      <g id="Text">
        <g id="Text-2" data-name="Text">
          <path d="M.09,518.26V471.1H8.94v39.72H31.47v7.44Zm35.63-17.32q0-7.89,4.82-12.85t12.71-4.95q8.31,0,12.9,4.76t4.59,13q0,8.24-4.68,13.1c-3.11,3.24-7.39,4.86-12.81,4.86s-9.84-1.64-12.91-4.91S35.72,506.37,35.72,500.94Zm8.85,0q0,11.38,8.68,11.39a7.59,7.59,0,0,0,6.31-3q2.34-3,2.34-8.43,0-11.24-8.65-11.24a7.68,7.68,0,0,0-6.33,3C45.35,494.64,44.57,497.39,44.57,500.94Zm61.57-14.43-3.64,6a11.61,11.61,0,0,0-8-2.68,9.9,9.9,0,0,0-7.64,3.05c-1.87,2-2.8,4.83-2.8,8.41q0,10.84,10.92,10.85a12.8,12.8,0,0,0,8.34-3l3.13,6.34a22.26,22.26,0,0,1-6.48,2.77,32.19,32.19,0,0,1-6.55.58q-8.44,0-13.33-4.65t-4.88-12.93q0-8.15,5.34-13.16t14.57-5A18.45,18.45,0,0,1,106.14,486.51Zm27.36,28.3a8.2,8.2,0,0,1-4,3,16.17,16.17,0,0,1-6,1.14q-5.88,0-9.26-2.78a9.72,9.72,0,0,1-3.37-7.91,10.89,10.89,0,0,1,4.75-9.37q4.76-3.37,13.49-3.38a15.85,15.85,0,0,1,3.54.49q0-6.09-8.13-6.09a18.86,18.86,0,0,0-8,1.52l-1.84-6.25a25.11,25.11,0,0,1,10.45-2q8.34,0,12.22,3.58t3.88,13.6v7.38q0,6.88,2.92,8.66a4.47,4.47,0,0,1-2.34,2.14,10,10,0,0,1-3,.4,4.88,4.88,0,0,1-3.3-1.29A6.59,6.59,0,0,1,133.5,514.81ZM132.68,502a19,19,0,0,0-3.27-.42q-10.06,0-10.07,6.25,0,4.63,5.69,4.63,7.65,0,7.65-7.24Zm19-11.78h-4.22v-6.47h4.22v-7l8.51-3v10h10v6.47h-10v15.1q0,3.7,1.22,5.23t4.29,1.53a11,11,0,0,0,5.72-1.58v7.4a28.36,28.36,0,0,1-8.44,1q-5.44,0-8.37-2.91c-2-2-2.93-4.71-2.93-8.29Zm33-19.83a4.92,4.92,0,0,1,3.49,1.37,4.5,4.5,0,0,1,0,6.6,5.16,5.16,0,0,1-7,0,4.5,4.5,0,0,1,0-6.6A4.92,4.92,0,0,1,184.65,470.42Zm-4.39,47.84V490.38H175.6v-6.6h13.27v34.48Zm16.13-17.32q0-7.89,4.82-12.85t12.71-4.95q8.29,0,12.9,4.76t4.59,13q0,8.24-4.68,13.1t-12.81,4.86q-8.31,0-12.92-4.91T196.39,500.94Zm8.85,0q0,11.38,8.68,11.39a7.59,7.59,0,0,0,6.31-3c1.56-2,2.33-4.78,2.33-8.43q0-11.24-8.64-11.24a7.65,7.65,0,0,0-6.33,3C206,494.64,205.24,497.39,205.24,500.94Zm56.43,17.32V498.33q0-4.41-1.79-6.44t-5.84-2a9.58,9.58,0,0,0-4,1,9.3,9.3,0,0,0-3.32,2.48v24.92h-8.5V483.78h6.12l1.57,3.22q3.47-3.87,10.24-3.86,6.51,0,10.26,3.68t3.76,10.29v21.15Zm62.15,0v-2.1a8.85,8.85,0,0,1-3.58,1.92,16.67,16.67,0,0,1-5.22.82q-7.61,0-12-4.57t-4.37-12.75q0-8.18,5-13.31a16.86,16.86,0,0,1,12.57-5.13,17.58,17.58,0,0,1,7.57,1.6V470.93l8.5-1.93v49.26Zm0-26.24a9.35,9.35,0,0,0-5.69-2.06c-3.4,0-6,1-7.87,3s-2.76,4.77-2.76,8.45q0,10.74,11,10.75a8.65,8.65,0,0,0,3-.69,5.71,5.71,0,0,0,2.34-1.41Zm21.32-1.64-2.82-3.58a17.61,17.61,0,0,0,3.89-3.38,4.17,4.17,0,0,0,.7-2.31,4.29,4.29,0,0,0-1.66-2.87,4.63,4.63,0,0,1-1.66-3.38c0-3.47,1.8-5.21,5.44-5.21a5.46,5.46,0,0,1,4.27,1.67,6.47,6.47,0,0,1,1.51,4.51Q354.81,484.71,345.14,490.38Zm30.63-11.85v11h16.47v7.12H375.77v14.13h22.6v7.44H366.92V471.1h31.82v7.43Zm58.89,8-3.65,6a11.56,11.56,0,0,0-8-2.68,9.9,9.9,0,0,0-7.64,3.05c-1.87,2-2.81,4.83-2.81,8.41q0,10.84,10.93,10.85a12.78,12.78,0,0,0,8.33-3l3.13,6.34a22.26,22.26,0,0,1-6.48,2.77,32.12,32.12,0,0,1-6.55.58c-5.63,0-10.06-1.55-13.32-4.65s-4.89-7.41-4.89-12.93,1.79-9.82,5.34-13.16,8.42-5,14.58-5A18.47,18.47,0,0,1,434.66,486.51Zm30.66,31.75V497a6.61,6.61,0,0,0-2.11-5.12,7.86,7.86,0,0,0-5.52-1.93,9.3,9.3,0,0,0-4.24,1.08,7.73,7.73,0,0,0-3.08,2.46v24.76h-8.64V470.93l8.64-1.93v17q3.31-2.84,9.09-2.83,6.84,0,10.63,3.58c2.5,2.4,3.77,5.83,3.77,10.29v21.25Zm38-3.45a8.27,8.27,0,0,1-4,3,16.08,16.08,0,0,1-6,1.14q-5.9,0-9.26-2.78a9.72,9.72,0,0,1-3.37-7.91,10.89,10.89,0,0,1,4.75-9.37q4.75-3.37,13.49-3.38a15.85,15.85,0,0,1,3.54.49q0-6.09-8.13-6.09a18.94,18.94,0,0,0-8,1.52l-1.83-6.25a25.11,25.11,0,0,1,10.45-2q8.34,0,12.22,3.58c2.59,2.4,3.87,6.93,3.87,13.6v7.38c0,4.59,1,7.48,2.93,8.66a4.49,4.49,0,0,1-2.35,2.14,9.91,9.91,0,0,1-3,.4,4.83,4.83,0,0,1-3.29-1.29A6.34,6.34,0,0,1,503.34,514.81ZM502.51,502a19,19,0,0,0-3.26-.42c-6.73,0-10.08,2.09-10.08,6.25q0,4.63,5.69,4.63c5.11,0,7.65-2.41,7.65-7.24Zm38-25a15.66,15.66,0,0,0-4.28-.87,5.23,5.23,0,0,0-4.11,2,7.18,7.18,0,0,0-1.69,4.83,7.89,7.89,0,0,0,.05.84H538v6.63h-7.43v27.85h-8.5V490.41h-5.3v-6.63h5.34a15.19,15.19,0,0,1,4-10.24,12.53,12.53,0,0,1,9.54-3.89A27.26,27.26,0,0,1,543,470.9Zm25.73,37.79a8.2,8.2,0,0,1-4,3,16.12,16.12,0,0,1-6,1.14q-5.91,0-9.26-2.78a9.72,9.72,0,0,1-3.37-7.91,10.87,10.87,0,0,1,4.75-9.37q4.74-3.37,13.49-3.38a15.85,15.85,0,0,1,3.54.49q0-6.09-8.13-6.09a18.94,18.94,0,0,0-8,1.52l-1.84-6.25a25.13,25.13,0,0,1,10.46-2c5.54,0,9.62,1.19,12.2,3.58s3.89,6.93,3.89,13.6v7.38c0,4.59,1,7.48,2.93,8.66a4.52,4.52,0,0,1-2.35,2.14,9.91,9.91,0,0,1-3,.4,4.9,4.9,0,0,1-3.31-1.29A6.59,6.59,0,0,1,566.22,514.81ZM565.4,502a18.86,18.86,0,0,0-3.26-.42q-10.08,0-10.07,6.25,0,4.63,5.68,4.63,7.65,0,7.65-7.24Zm41.15,16.26v-2.9a15.65,15.65,0,0,1-5,2.48,18.77,18.77,0,0,1-5.81,1q-12.69,0-12.71-12.75V483.78h8.51v21.76q0,6.63,6.3,6.63a10.67,10.67,0,0,0,5.37-1.41,7.42,7.42,0,0,0,3.31-3.29V483.78h8.51v34.51Zm41.15,0v-2.1a8.85,8.85,0,0,1-3.58,1.92,16.54,16.54,0,0,1-5.2.82q-7.63,0-12-4.57t-4.37-12.75q0-8.18,5-13.31a16.88,16.88,0,0,1,12.58-5.13,17.57,17.57,0,0,1,7.56,1.6V470.93l8.5-1.93v49.26Zm0-26.24A9.35,9.35,0,0,0,642,490q-5.1,0-7.85,3c-1.85,2-2.76,4.77-2.76,8.45q0,10.74,11,10.75a8.65,8.65,0,0,0,3-.69A5.57,5.57,0,0,0,647.7,510ZM685,514.81a8.2,8.2,0,0,1-4,3,16.12,16.12,0,0,1-6,1.14q-5.9,0-9.26-2.78a9.72,9.72,0,0,1-3.37-7.91,10.87,10.87,0,0,1,4.75-9.37q4.74-3.37,13.49-3.38a15.85,15.85,0,0,1,3.54.49q0-6.09-8.13-6.09a18.94,18.94,0,0,0-8,1.52l-1.83-6.25a25.11,25.11,0,0,1,10.45-2c5.56,0,9.62,1.19,12.22,3.58s3.87,6.93,3.87,13.6v7.38c0,4.59,1,7.48,2.93,8.66a4.49,4.49,0,0,1-2.35,2.14,9.91,9.91,0,0,1-3,.4,4.92,4.92,0,0,1-3.31-1.29A6.59,6.59,0,0,1,685,514.81ZM684.17,502a18.86,18.86,0,0,0-3.26-.42q-10.08,0-10.07,6.25c0,3.09,1.89,4.63,5.69,4.63q7.63,0,7.64-7.24Zm15,25.08,5.38-6.28a14.77,14.77,0,0,0,9.93,3.87,15.27,15.27,0,0,0,6.06-1c1.59-.68,2.39-1.63,2.39-2.83q0-3.06-5.28-3.06a39.82,39.82,0,0,0-4.25.33,42.37,42.37,0,0,1-4.26.32q-8.77,0-8.78-6a5.06,5.06,0,0,1,1.46-3.35,8.92,8.92,0,0,1,3.4-2.41A12.06,12.06,0,0,1,699,495.85a11.49,11.49,0,0,1,4.29-9.16,15.81,15.81,0,0,1,10.55-3.62,17.39,17.39,0,0,1,8.19,1.74l3.34-3.67,5.89,5.05-4,2.8a13.44,13.44,0,0,1-1.69,16.57,13.52,13.52,0,0,1-9.58,3.52,23.82,23.82,0,0,1-2.46-.16l-1.39-.19a9.43,9.43,0,0,0-1.82.69c-1.05.46-1.58.94-1.58,1.43,0,.86.78,1.29,2.35,1.29a21.67,21.67,0,0,0,3.54-.48,22.14,22.14,0,0,1,4.25-.49q12.44,0,12.42,9.44,0,5.21-5,8.19a23,23,0,0,1-12,3A26.07,26.07,0,0,1,699.12,527.11Zm8.51-31.23a6.77,6.77,0,0,0,1.79,4.91,6.34,6.34,0,0,0,4.81,1.85,6,6,0,0,0,4.67-1.8,7.14,7.14,0,0,0,1.63-5,6.09,6.09,0,0,0-6.3-6.21,6.67,6.67,0,0,0-4.77,1.74A5.89,5.89,0,0,0,707.63,495.88Zm61.74,7.6h-26a8.56,8.56,0,0,0,3,6.41,11.3,11.3,0,0,0,7.42,2.28c3.87,0,6.84-.95,8.84-2.86l3.31,6.15c-3,2.29-7.46,3.44-13.42,3.44-5.54,0-10-1.54-13.17-4.62s-4.86-7.38-4.86-12.89a17.41,17.41,0,0,1,5.33-13.2,17.92,17.92,0,0,1,12.78-5.05q7.92,0,12.73,4.47A14.91,14.91,0,0,1,770.07,499,21.58,21.58,0,0,1,769.37,503.48Zm-25.73-6.05h17.89c-.58-5.05-3.54-7.57-8.85-7.57C747.84,489.86,744.81,492.38,743.64,497.43Zm31,18.61,3-6.41a14,14,0,0,0,8.6,2.86c3.32,0,5-1.11,5-3.34a4,4,0,0,0-1.49-3.22,23,23,0,0,0-5.83-3q-9.42-3.71-9.41-10.37a8,8,0,0,1,3.6-7,15.89,15.89,0,0,1,9.23-2.49A24.2,24.2,0,0,1,798,485.55l-2.45,6.24c-1.86-1.5-4.45-2.25-7.75-2.25q-4.47,0-4.47,3.35a3,3,0,0,0,1.48,2.38,30.4,30.4,0,0,0,6.25,2.85q4.81,1.78,6.91,4.33a9.32,9.32,0,0,1,2.11,6.15,8.85,8.85,0,0,1-3.76,7.55c-2.5,1.83-5.92,2.75-10.23,2.75a24.54,24.54,0,0,1-5.83-.56A30.5,30.5,0,0,1,774.63,516Z" transform="translate(-0.09 -57.06)" style="fill: #c04b4a"/>
        </g>
      </g>
    </g>
  </g>
</svg>
